/* XPM */
static char * Eurecom_Logo_xpm[] = {
"106 50 501 2",
"  	c None",
". 	c #FFFFFF",
"+ 	c #FCFCFC",
"@ 	c #DADADC",
"# 	c #D5D5D6",
"$ 	c #E2E2E3",
"% 	c #F7F7F7",
"& 	c #C2C2C4",
"* 	c #BDBEC1",
"= 	c #DBDADC",
"- 	c #EFEFEF",
"; 	c #BDC0C3",
"> 	c #BFC0C3",
", 	c #BEC0C3",
"' 	c #BDBFC3",
") 	c #B2BEC4",
"! 	c #B2BEC5",
"~ 	c #B3BFC5",
"{ 	c #DBE6EA",
"] 	c #EFFAFE",
"^ 	c #F9FDFF",
"/ 	c #FEFFFE",
"( 	c #FBFBFB",
"_ 	c #F4F4F4",
": 	c #B8DEEC",
"< 	c #16B0EB",
"[ 	c #21B7F0",
"} 	c #22B8F0",
"| 	c #BFEAFA",
"1 	c #FEFEFD",
"2 	c #FEFEFE",
"3 	c #87D7F3",
"4 	c #02ADEF",
"5 	c #0AAEED",
"6 	c #D8F2FB",
"7 	c #F0F0F1",
"8 	c #EEEEEF",
"9 	c #EEEFEF",
"0 	c #74C9EA",
"a 	c #34B3E3",
"b 	c #35B3E3",
"c 	c #35B3E4",
"d 	c #37B6E6",
"e 	c #3DBCEB",
"f 	c #3DBCEC",
"g 	c #47C1EF",
"h 	c #F1FAFD",
"i 	c #C2C1C3",
"j 	c #BBBDC0",
"k 	c #BBBDC1",
"l 	c #BABDC0",
"m 	c #BCBEC1",
"n 	c #D3D6D8",
"o 	c #F9FDFD",
"p 	c #F8FDFD",
"q 	c #F9FDFC",
"r 	c #FAFDFD",
"s 	c #FDFEFF",
"t 	c #F6F6F7",
"u 	c #BEBFC1",
"v 	c #E1E1E1",
"w 	c #FFFFFE",
"x 	c #F6F6F6",
"y 	c #DCDCDE",
"z 	c #DDDDDF",
"A 	c #DCDDDE",
"B 	c #AFCDDA",
"C 	c #52B5DC",
"D 	c #5DB6D9",
"E 	c #5AB6DA",
"F 	c #59B6DA",
"G 	c #5CB6DA",
"H 	c #5BB6DA",
"I 	c #5BB6D9",
"J 	c #6BC6E8",
"K 	c #80D1F0",
"L 	c #80D1EF",
"M 	c #DCF2F8",
"N 	c #86D8F7",
"O 	c #13B2EF",
"P 	c #D6F1F9",
"Q 	c #FDFDFD",
"R 	c #5EC9F0",
"S 	c #06AEEF",
"T 	c #05AEEF",
"U 	c #07AFEF",
"V 	c #26B9F1",
"W 	c #EEF9FC",
"X 	c #FAFAFA",
"Y 	c #CBCDD0",
"Z 	c #C9C9CB",
"` 	c #C6C8CA",
" .	c #A5C2CC",
"..	c #9BC1CE",
"+.	c #9AC0CD",
"@.	c #9BC0CD",
"#.	c #99BFCC",
"$.	c #97BECB",
"%.	c #98BECC",
"&.	c #ABD2E0",
"*.	c #C4ECF9",
"=.	c #C5EDFB",
"-.	c #CDEFFA",
";.	c #FCFEFC",
">.	c #F2F2F2",
",.	c #C0C0C3",
"'.	c #BEBEC1",
").	c #BEBEC0",
"!.	c #BFBEC0",
"~.	c #C0BFC0",
"{.	c #E2E1E1",
"].	c #EDECEC",
"^.	c #C4C4C6",
"/.	c #C5C4C6",
"(.	c #BCC1C5",
"_.	c #9CBECB",
":.	c #9BBECB",
"<.	c #9DBECB",
"[.	c #9EBECA",
"}.	c #A5BCC4",
"|.	c #A0BDC8",
"1.	c #9BBECC",
"2.	c #BFDDE9",
"3.	c #CBEEFB",
"4.	c #CAEEFB",
"5.	c #CAEEFA",
"6.	c #E9F8FB",
"7.	c #AEE4F9",
"8.	c #03ADEF",
"9.	c #B1E3F4",
"0.	c #FDFEFC",
"a.	c #DAF3FC",
"b.	c #9BDDF6",
"c.	c #61CBF4",
"d.	c #67CDF4",
"e.	c #F7FDFD",
"f.	c #FEFFFD",
"g.	c #DDDCDD",
"h.	c #DEDDDE",
"i.	c #F7F6F6",
"j.	c #F8F8F8",
"k.	c #E5E6E7",
"l.	c #E8E8E9",
"m.	c #E3E4E5",
"n.	c #E1E1E2",
"o.	c #E5E4E5",
"p.	c #D0CFCF",
"q.	c #BAB9BA",
"r.	c #C4C3C3",
"s.	c #F8F7F8",
"t.	c #D2D1D2",
"u.	c #BCBBBB",
"v.	c #C3C1C2",
"w.	c #E7E9EA",
"x.	c #E9E9EA",
"y.	c #DDDDDD",
"z.	c #EDEDED",
"A.	c #DCDCDC",
"B.	c #F0F1F2",
"C.	c #7D7C7D",
"D.	c #2A2728",
"E.	c #2D2A2B",
"F.	c #393637",
"G.	c #DAD9DA",
"H.	c #B3B2B2",
"I.	c #312D2E",
"J.	c #EEEEEE",
"K.	c #514F50",
"L.	c #858384",
"M.	c #B0AEAF",
"N.	c #292627",
"O.	c #2F2C2D",
"P.	c #312E2F",
"Q.	c #2E2C2D",
"R.	c #4B4848",
"S.	c #CDCCCD",
"T.	c #EAE9EA",
"U.	c #343031",
"V.	c #2C292A",
"W.	c #757374",
"X.	c #FBFAFB",
"Y.	c #9F9D9E",
"Z.	c #403D3E",
"`.	c #3A3738",
" +	c #4A4748",
".+	c #373435",
"++	c #6F6D6F",
"@+	c #F3F4F5",
"#+	c #C1C0C1",
"$+	c #4D4A4B",
"%+	c #363334",
"&+	c #4B4849",
"*+	c #373434",
"=+	c #333031",
"-+	c #A1A1A3",
";+	c #5D5A5B",
">+	c #2A2627",
",+	c #B3B1B2",
"'+	c #4A4A4C",
")+	c #282526",
"!+	c #BDBFC1",
"~+	c #484546",
"{+	c #7E7C7C",
"]+	c #E6E6E7",
"^+	c #E7E7E7",
"/+	c #E5E7E8",
"(+	c #807E7F",
"_+	c #4D4C4E",
":+	c #E2E1E2",
"<+	c #7E7C7D",
"[+	c #4F4E50",
"}+	c #F0F0F0",
"|+	c #D7D9DA",
"1+	c #434041",
"2+	c #4E4D4F",
"3+	c #F6F7F7",
"4+	c #BFBEBF",
"5+	c #2B2728",
"6+	c #CDCDCE",
"7+	c #E7E6E7",
"8+	c #F1F2F2",
"9+	c #F7F7F8",
"0+	c #767475",
"a+	c #B5B6B7",
"b+	c #FAF9F9",
"c+	c #BAB9B9",
"d+	c #615E5F",
"e+	c #ABAAAB",
"f+	c #2D292A",
"g+	c #989798",
"h+	c #F2F4F5",
"i+	c #F3F3F3",
"j+	c #7F7D7E",
"k+	c #221E1F",
"l+	c #CBCBCB",
"m+	c #322F30",
"n+	c #484646",
"o+	c #797778",
"p+	c #828081",
"q+	c #2B2829",
"r+	c #E8E8E8",
"s+	c #292526",
"t+	c #B7B5B6",
"u+	c #F8F9F9",
"v+	c #BDBCBD",
"w+	c #252122",
"x+	c #E6E6E6",
"y+	c #F7F8F8",
"z+	c #4B4A4B",
"A+	c #8B898A",
"B+	c #3F3D3F",
"C+	c #F2F2F3",
"D+	c #8D8B8C",
"E+	c #474445",
"F+	c #F5F5F5",
"G+	c #A5A4A4",
"H+	c #2F2B2C",
"I+	c #9B999A",
"J+	c #383536",
"K+	c #808183",
"L+	c #C6C5C5",
"M+	c #4D494A",
"N+	c #3E3A3B",
"O+	c #7B7A7A",
"P+	c #F7F6F7",
"Q+	c #292628",
"R+	c #D0D2D3",
"S+	c #F0EFEF",
"T+	c #EAEAEA",
"U+	c #B2B1B1",
"V+	c #8C8A8B",
"W+	c #3F3D3E",
"X+	c #B4B3B3",
"Y+	c #504D4E",
"Z+	c #737272",
"`+	c #5A5758",
" @	c #706D6E",
".@	c #F2F1F1",
"+@	c #3F3B3C",
"@@	c #868485",
"#@	c #7D7B7B",
"$@	c #474547",
"%@	c #F2F3F4",
"&@	c #555253",
"*@	c #696667",
"=@	c #999898",
"-@	c #D6D6D6",
";@	c #E3E2E2",
">@	c #E9E9E9",
",@	c #444142",
"'@	c #B5B4B4",
")@	c #585556",
"!@	c #7A7879",
"~@	c #322E2F",
"{@	c #353132",
"]@	c #C2C1C2",
"^@	c #5D5B5C",
"/@	c #737374",
"(@	c #C2C1C1",
"_@	c #D1D0D0",
":@	c #787676",
"<@	c #454243",
"[@	c #DFDFDF",
"}@	c #FEFDFE",
"|@	c #CCCBCC",
"1@	c #262223",
"2@	c #CFCECE",
"3@	c #747375",
"4@	c #636263",
"5@	c #868484",
"6@	c #F1F1F1",
"7@	c #3D393A",
"8@	c #B8B9BA",
"9@	c #737172",
"0@	c #7C7B7C",
"a@	c #AAA9A9",
"b@	c #5B595A",
"c@	c #696767",
"d@	c #D7D6D6",
"e@	c #D5D5D5",
"f@	c #EBEBEC",
"g@	c #A8A6A7",
"h@	c #8F8D8E",
"i@	c #E6E5E5",
"j@	c #CBCBCC",
"k@	c #282425",
"l@	c #B7B6B6",
"m@	c #D7D6D7",
"n@	c #E4E3E3",
"o@	c #A9A8A8",
"p@	c #DFDEDF",
"q@	c #383435",
"r@	c #9E9D9E",
"s@	c #373536",
"t@	c #B2B3B5",
"u@	c #6A6768",
"v@	c #494647",
"w@	c #ECEBEC",
"x@	c #CFCECF",
"y@	c #EAEAEB",
"z@	c #373335",
"A@	c #AAA8A9",
"B@	c #5C5A5B",
"C@	c #6B696A",
"D@	c #CBCACB",
"E@	c #D8D7D7",
"F@	c #595758",
"G@	c #6A696A",
"H@	c #D9D8D8",
"I@	c #878585",
"J@	c #9B9A9B",
"K@	c #3B3839",
"L@	c #9D9B9C",
"M@	c #343132",
"N@	c #D5D4D4",
"O@	c #BEBDBD",
"P@	c #272324",
"Q@	c #D8D8D9",
"R@	c #9A9B9C",
"S@	c #242122",
"T@	c #CECDCE",
"U@	c #9C9B9C",
"V@	c #3E3C3D",
"W@	c #F0F2F2",
"X@	c #231F20",
"Y@	c #DAD9D9",
"Z@	c #7B797A",
"`@	c #514E4F",
" #	c #332F30",
".#	c #A1A2A3",
"+#	c #ABA9AA",
"@#	c #262324",
"##	c #CAC9C9",
"$#	c #696768",
"%#	c #5E5C5D",
"&#	c #AFAEAF",
"*#	c #CFD0D1",
"=#	c #E2E4E5",
"-#	c #9A9899",
";#	c #EDEEEE",
">#	c #4C4A4C",
",#	c #716F6F",
"'#	c #A9A7A8",
")#	c #E4E4E4",
"!#	c #C0BFBF",
"~#	c #656466",
"{#	c #686566",
"]#	c #9E9C9D",
"^#	c #F9F9F9",
"/#	c #59595A",
"(#	c #F1F0F1",
"_#	c #B8B7B8",
":#	c #B9B8B8",
"<#	c #605D5E",
"[#	c #4E4B4C",
"}#	c #F4F3F3",
"|#	c #959494",
"1#	c #FAF9FA",
"2#	c #605E60",
"3#	c #8D8C8D",
"4#	c #595657",
"5#	c #403C3D",
"6#	c #DADBDD",
"7#	c #E8E7E8",
"8#	c #E6E5E6",
"9#	c #747172",
"0#	c #706E6F",
"a#	c #9C9A9B",
"b#	c #6F6D6D",
"c#	c #E3E3E3",
"d#	c #CCCCCC",
"e#	c #575455",
"f#	c #ABADAE",
"g#	c #9F9FA0",
"h#	c #E6E6E5",
"i#	c #302D2E",
"j#	c #8E8C8D",
"k#	c #2E2B2C",
"l#	c #7A7878",
"m#	c #C3C2C3",
"n#	c #524F50",
"o#	c #484547",
"p#	c #C6C6C6",
"q#	c #DFDEDE",
"r#	c #4C494A",
"s#	c #525051",
"t#	c #A7A6A6",
"u#	c #CDCCCC",
"v#	c #DBDADA",
"w#	c #D3D3D3",
"x#	c #B6B4B5",
"y#	c #A4A3A4",
"z#	c #E2E4E4",
"A#	c #D9D8D9",
"B#	c #D8D7D8",
"C#	c #FDFCFC",
"D#	c #D0D0D0",
"E#	c #EEEDEE",
"F#	c #A5A3A4",
"G#	c #AFAEAE",
"H#	c #D3D2D3",
"I#	c #C5C4C4",
"J#	c #A7A5A5",
"K#	c #D4D3D3",
"L#	c #F3F4F4",
"M#	c #F9F9FA",
"N#	c #FBFAFA",
"O#	c #D4D3D4",
"P#	c #D2D2D4",
"Q#	c #DEDEDF",
"R#	c #EAE9E9",
"S#	c #C3C4C6",
"T#	c #E9EAEB",
"U#	c #F5F5F6",
"V#	c #BFC1C2",
"W#	c #C6C5C6",
"X#	c #ECECEC",
"Y#	c #F6F7F8",
"Z#	c #DBDBDC",
"`#	c #FDFCFD",
" $	c #F4F3F2",
".$	c #D4D5D6",
"+$	c #E1E0E1",
"@$	c #E2E2E2",
"#$	c #BCBEBF",
"$$	c #DCDEE0",
"%$	c #CECECF",
"&$	c #D3D5D6",
"*$	c #C5C4C5",
"=$	c #CACACA",
"-$	c #ACABAC",
";$	c #BFBFC0",
">$	c #CECECE",
",$	c #C2C2C3",
"'$	c #DBDADB",
")$	c #C9C9CA",
"!$	c #C8C7C8",
"~$	c #CDCFD0",
"{$	c #C9CACA",
"]$	c #E3E3E4",
"^$	c #E8EAEA",
"/$	c #B7B6B7",
"($	c #E4E4E5",
"_$	c #C5C5C6",
":$	c #E0E0E0",
"<$	c #BBBABB",
"[$	c #D2D4D5",
"}$	c #CCCCCD",
"|$	c #CACACB",
"1$	c #FEFFFF",
"2$	c #E4E6E7",
"3$	c #D7D9DB",
"4$	c #D7D7D8",
"5$	c #D8DADB",
"6$	c #F9FAF9",
"7$	c #B0AFB0",
"8$	c #FEFDFD",
"9$	c #D7D7D7",
"0$	c #C9C9C9",
"a$	c #DEDEDE",
"b$	c #C9C8C9",
". . . . . . . . . . . . . . . . . . . . . . . . . . . . . . . . . . . . . . . . . . . . . . . . . . . . . . . . . . . . . . . . . . . . . . . . . . . . . . . . . . . . . . . . . . . . . . . . . . . . . . . . . . ",
". . . . . . . . . . . . . . . . . . . . . . . . . . . . . . . . . . . . . . . . . . . . . . . . . . . . . . . . . . . . . . . . . . . . . . . . . . . . . . . . . . . . . . . . . . . . . . . . . . . . . . . . . . ",
". . . . . . . . . . . . . . . . . . . . . . . . . . . . . . . . . . . . . . . . . . . . . . . . . . . . . . . . . . . . . . . . . . . . . . . . . . . . . . . . . . . . . . . . . . . . . . . . . . . . . . . . . . ",
". . . . . . . . . . . . . . . . . . . . . . . . . . . . . . . . . . . . . . . . . . . . . . . . . . . . . . . . . . . . . . . . . . . . . . . . . . . . . . . . . . . . . . . . . . . . . . . . . . . . . . . . . . ",
". . . . . . . . . . . . . . . . . . . . . . . . . . . . . . . . . . . . . . . . . . . . . . . . . . . . . . . . . . . . . . . . . . . . . . . . . . . . . . . . . . . . . . . . . . . . . . . . . . . . . . . . . . ",
". . . . . . . . . . . . . . . . . . . . . . . . . . . . . . . . . . . . . . . . . . . . . . . . . . . . . . . . . . . . . . . . . . . . . . . . . . . . . . . . . . . . . . . . . . . . . . . . . . . . . . . . . . ",
". . . . . . . . . . . . . . . . . . . . . . . . . . . . . . . . . . . . . . . + @ # # # # # # # # # # # # # # # # # # # # $ . . . . . . . . . . . . . . . . . . . . . . . . . . . . . . . . . . . . . . . . . . . . ",
". . . . . . . . . . . . . . . . . . . . . . . . . . . . . . . . . . . . . . . % & * * * * * * * * * * * * * * * * * * * * = . . . . . . . . . . . . . . . . . . . . . . . . . . . . . . . . . . . . . . . . . . . . ",
". . . . . . . . . . . . . . . . . . . . . . . . . . . . . . . . . . . . . . . - ; ; > , ; ; ; ' ) ! ~ ~ ~ ~ ~ ~ ~ ~ ~ ! ) { ] ] ] ] ] ] ] ^ / . . . . . . . . . . . . . . . . . . . . . . . . . . . . . . . . . . . ",
". . . . . . . . . . . . . . . . . . . . . . . . . . . . . . . . . . . . . . . ( _ _ _ _ _ _ _ : < < < < < < < < < < < < < [ } } } } } } } | 1 . . . . . . . . . . . . . . . . . . . . . . . . . . . . . . . . . . . ",
". . . . . . . . . . . . . . . . . . . . . . . . . . . . . . . . . . . . . . . 2 . . . . . . . 3 4 4 4 4 4 4 4 4 4 4 4 4 4 4 4 4 4 4 4 4 5 6 . . . . . . . . . . . . . . . . . . . . . . . . . . . . . . . . . . . . ",
". . . . . . . . . . . . . . . . . . . . . . . . . . . . . . . . . . . . . . . 7 8 9 9 9 9 9 9 0 a a a a a a b a c a c a d e e e e e e f g h . . . . . . . . . . . . . . . . . . . . . . . . . . . . . . . . . . . . ",
". . . . . . . . . . . . . . . . . . . . . . . . . . . . . . . . . . . . . . 2 i * * * * * * * * j j j j j j k l m l m j n o p p q q q r s . . . . . . . . . . . . . . . . . . . . . . . . . . . . . . . . . . . . . ",
". . . . . . . . . . . . . . . . . . . . . . . . . . . . . . . . . . . . . . t u * * * * * * * * * * * * * * * * * * * * v w w w w w w w / . . . . . . . . . . . . . . . . . . . . . . . . . . . . . . . . . . . . . ",
". . . . . . . . . . . . . . . . . . . . . . . . . . . . . . . . . . . . . . x y z z z z z A B C D D E F F D D G F F H I J K K K K K K L M / . . . . . . . . . . . . . . . . . . . . . . . . . . . . . . . . . . . . ",
". . . . . . . . . . . . . . . . . . . . . . . . . . . . . . . . . . . . . . . . . . . . . . N 4 4 4 4 4 4 4 4 4 4 4 4 4 4 4 4 4 4 4 4 O P . . . . . . . . . . . . . . . . . . . . . . . . . . . . . . . . . . . . . ",
". . . . . . . . . . . . . . . . . . . . . . . . . . . . . . . . . . . . . . Q Q Q Q Q Q Q Q R S S S S S T S S S T S S S U U U U U U U V W . . . . . . . . . . . . . . . . . . . . . . . . . . . . . . . . . . . . . ",
". . . . . . . . . . . . . . . . . . . . . . . . . . . . . . . . . . . . . X Y Z Z Z Z Z Z `  ...+.@.@.#.$.@.@.@.%.#.@.&.*.=.=.=.=.=.=.-.;.. . . . . . . . . . . . . . . . . . . . . . . . . . . . . . . . . . . . . ",
". . . . . . . . . . . . . . . . . . . . . . . . . . . . . . . . . . . . . >.,.* * * * * * * '.).!.!.!.!.!.!.!.!.!.!.~.{.1 1 1 1 1 1 / 1 2 . . . . . . . . . . . . . . . . . . . . . . . . . . . . . . . . . . . . . ",
". . . . . . . . . . . . . . . . . . . . . . . . . . . . . . . . . . . . . ].^././././././.(._.:.<.[.}.|.<.<.|.}.[.<.1.2.3.4.4.4.4.4.5.6.. . . . . . . . . . . . . . . . . . . . . . . . . . . . . . . . . . . . . . ",
". . . . . . . . . . . . . . . . . . . . . . . . . . . . . . . . . . . . . 2 Q Q Q Q Q Q Q 7.4 4 4 4 4 4 4 4 4 4 4 4 4 4 4 4 4 4 4 4 8.9.. . . . . . . . . . . . . . . . . . . . . . . . . . . . . . . . . . . . . . ",
". . . . . . . . . . . . . . . . . . . . . . . . . . . . . . . . . . . . . . . . . . . . 0.3 4 4 4 4 4 4 4 4 4 4 4 4 4 4 4 4 4 4 4 4 8.a.. . . . . . . . . . . . . . . . . . . . . . . . . . . . . . . . . . . . . . ",
". . . . . . . . . . . . . . . . . . . . . . . . . . . . . . . . . . . . . . . . . . . w 0.b.c.c.c.c.c.c.c.c.c.c.c.c.c.c.c.c.c.c.c.c.d.e.. . . . . . . . . . . . . . . . . . . . . . . . . . . . . . . . . . . . . . ",
". . . . . . . . . . . . . . . . . . . . . . . . . . . . . . . . . . . . . . . . . . . . 1 f.. . . . . . . . . . . . . . . . . . . . f.1 . . . . . . . . . . . . . . . . . . . . . . . . . . . . . . . . . . . . . . ",
". . . . . . . . . . . . . . . . . . . . . . . . . . . . . . . . . . . . . . . . . . . . . . . . . . . . . . . . . . . . . . . . . . . . . . . . . . . . . . . . . . . . . . . . . . . . . . . . . . . . . . . . . . ",
". . . . . . . . . 2 . . . . . . . . . . . . . . . . . . . . . . . . . . . . . . . . . . . . . . . . . . . . . . . . . . . . . . . . . . . . . . . . . . . . . . . . . . . . . . . . . . . . . . . . . . . . . . . . ",
". . . . . . . . - g.g.g.g.g.h.i.. . . . % h.j.. . . . k.l.. . . . . % h.g.g.m.X . . . . . . . Q n.g.g.g.g.g.o.2 . . . . . . >.p.q.r.{.2 . . . . . . . s.t.u.v.w.. . . . . . . . x.y.x . . . . z.A.B.. . . . . . . . ",
". . . . . . . . C.D.E.E.E.E.F.G.. . . . H.I.J.. . . ( K.L.. . . . . M.N.O.P.Q.R.S.. . . . . . T.U.V.E.E.E.E.W.Q . . . . X.Y.Z.`. +.+V.++@+. . . 2 2 #+$+%+&+*+=+-+2 . . . . . ( ;+>+,+. . . _ '+)+!+. . . . . . . . ",
". . . . . . . Q ~+{+]+]+]+^+/++ . . . 2 (+_+X . . . :+V.q.. . . . 2 <+[+- }+|+1+2+3+. . . . . 4+5+6+7+7+7+k.8+. . . . 9+0+`.a+b+. s.c+d+x . . . 2 e+f+g+h+. i+j+k+l+. . . . . ^+m+n+o+. . Q p+m+q+^+. . . . . . . . ",
". . . . . . . r+s+t+. . . . . . . . . u+_+<+2 . . . v+w+x+. . . . y+z+L.2 . . A+B+C+. . . . . D+E+F+. . . . . . . . . G+E.t.. . . . 2 i+2 . . . y.H+I++ . . . J.J+K+. . . . 2 L+O.Y.M+x . ~.N+O+~+P+. . . . . . . . ",
". . . . . . . 4+Q+R+S+S+S+S+b+. . . . T+q+U+. . . . V+W+Q . . . . T+D.X+. . + Y+Z++ . . . . 2 `+ @- S+S+S+.@. . . . F++@@@2 . . . . 2 . . . . . #@$@%@. . . . 2 &@*@. . . . 2 =@Y+-@P.;@>@,@'@)@!@2 . . . . . . . . ",
". . . . . . . A+k+~@{@{@{@=+S.. . . . ]@>+A.. . . X ^@/@. . . . . ~.w+(@v _@:@<@[@. . . . . B.~@>+{@{@{@{@d+}@. . . |@1@2@. . . . . . . . . . i.F.D+. . . . . Q $+3@. . . . + 4@5@6@7@8@9@0@}+V.a@. . . . . . . . . ",
". . . . . . Q b@c@d@d@d@d@e@X . . . . D+1+i+. . . f@=+g@. . . . . h@k+U.I.s+o+i@. . . . . . j@k@l@d@d@d@m@n@. . . . o@m+x+. . . . . . . . . . p@k@l@. . . . . J.q@r@. . . . i+s@t@Q u@$+v@w@x@k@m@. . . . . . . . . ",
". . . . . . y@z@A@. . . . . . . . . . B@C@. . . . D@1@E@. . . . . F@G@z.H@%+I@2 . . . . . . J@K@_ . . . . . . . . . L@M@>@. . . . . . . . . . N@1@O@. . . . . '@P@p@. . . . Q@O.h.. R@S@T@2 U@V@W@. . . . . . . . . ",
". . . . . . l+X@Y@. . . . . . . . . . E+p+. . . 2 Z@`@x . . . . }+ #.#. . +#@###. . . . . 2 $#%#. . . . . . . . . . &#w+*#. . . . . W@. . . . =#N.-#. . . . ;#>#,#. . . . . '#<@_ . )#!#. . ~#{#2 . . . . . . . . . ",
". . . . . . ]#.+}+^#^#^#^#Q . . . . . /#Y+(#. Q _#>+:#. . . . . T@s+t.. . j.<#[#}#. . . . >.Z.|#1#^#^#^#X . . . . . r+P.2#S+. . i+Y.3#. . . . + 4#5#6#. . 7#;+~+8#. . . . . 9#0#2 . . . . F+K@a#. . . . . . . . . . ",
". . . . . Q b#k@I.I.I.I.`.c#. . . . . d#{@.+e#~+F.f#2 . . . . . g#`._ . . . h#i#j#Q . . . Y@k#H+I.I.I.I.l#. . . . . . m#Z.=+&@n#F.o#p#. . . . . q#r#5+s#s#m+C@7#2 . . . . + v@t#. . . . . -@i#u#. . . . . . . . . . ",
". . . . . 2 v#_@_@_@_@_@w#( . . . . . 2 i@x#y#u.7#w . . . . . . z#A#. . . . . g.B#C#. . . >._@_@_@_@_@D#^+. . . . . . . E#!#F#G#H#j.. . . . . . . i+I#J#G#e@Q . . . . . . + K#6@. . . . . .@_@^#. . . . . . . . . . ",
". . . . . . . . . . . . . . . . . . . . . . . . . . . . . . . . . . . . . . . . . . . . . . . . . . . . . . . . . . . . . . . . . . . . . . . . . . . . . . . . . . . . . . . . . . . . . . . . . . . . . . . . . . ",
". . . . . Q L#+ . . . . . . . . . . . . . . . . ^#. . . . . Q + . . . . . . . . . . . . . . . 2 X . . . . . . . . . . . Q . . . . ( 2 . . . . . . . . . . . . . . . 2 M#. . . . N#. . . . . . . . . . . . . . . . . ",
". . . . . O#P#- . . . + Q#x . . . 2 :+R#. . . . S#y.. . . . T#.@. . . U#A.+ . . . . . . . . . v V#. . . . i+A.( . . . - W#2 . . . c#^#2 . . X#Q#Q . . . Y#Z#`#. . .  $.$. . . 1#$ . . . C#+$F+. . . . . . . . . . . ",
". . . . . @$#$>.. . . $$%$&$. . . }+D@W#. . . Q *$!#. . . . =$X . . . G.-$F+. . . . . . . . Q e+;$2 . . . >$,$6@. . . @$'$. . . Q )$Q . . 2 p#!$% . . . ~${$>@. . . q#]$. . . ^$v#. . . 6@/$_ . . . . . . . . . . . ",
". . . . . t.%$y+. . . ($_$6@. . . :$<$8#. . . % A.[$. . . w N@. . . . }$|$1$. . . . . . . . 2$^+3$Q . . . 4$5$6$. . . @$[@. . . ^#v#. . . ( 7$R+8$. . . 9$0$Q . . . a$j.. . . ]+}+. . . J.b$_ . . . . . . . . . . . ",
". . . . . 2 2 . . . . . 2 . . . . J.x 2 . . . . 2 2 . . . . . . . . . 2 . . . . . . . . . . . . . . . . . . 2 2 . . . . 2 . . . . . . . . Q >@2 . . . . . 2 . . . . . . . . 2 2 . . . . . 2 . . . . . . . . . . . . ",
". . . . . . . . . . . . . . . . . . . . . . . . . . . . . . . . . . . . . . . . . . . . . . . . . . . . . . . . . . . . . . . . . . . . . . . . . . . . . . . . . . . . . . . . . . . . . . . . . . . . . . . . . . ",
". . . . . . . . . . . . . . . . . . . . . . . . . . . . . . . . . . . . . . . . . . . . . . . . . . . . . . . . . . . . . . . . . . . . . . . . . . . . . . . . . . . . . . . . . . . . . . . . . . . . . . . . . . ",
". . . . . . . . . . . . . . . . . . . . . . . . . . . . . . . . . . . . . . . . . . . . . . . . . . . . . . . . . . . . . . . . . . . . . . . . . . . . . . . . . . . . . . . . . . . . . . . . . . . . . . . . . . ",
". . . . . . . . . . . . . . . . . . . . . . . . . . . . . . . . . . . . . . . . . . . . . . . . . . . . . . . . . . . . . . . . . . . . . . . . . . . . . . . . . . . . . . . . . . . . . . . . . . . . . . . . . . ",
". . . . . . . . . . . . . . . . . . . . . . . . . . . . . . . . . . . . . . . . . . . . . . . . . . . . . . . . . . . . . . . . . . . . . . . . . . . . . . . . . . . . . . . . . . . . . . . . . . . . . . . . . . ",
". . . . . . . . . . . . . . . . . . . . . . . . . . . . . . . . . . . . . . . . . . . . . . . . . . . . . . . . . . . . . . . . . . . . . . . . . . . . . . . . . . . . . . . . . . . . . . . . . . . . . . . . . . "};
